<svg width="77" height="63" viewBox="0 0 77 63" fill="none" xmlns="http://www.w3.org/2000/svg">
<path d="M17.328 62.24C12.6987 62.24 8.81333 60.8347 5.672 58.024C2.53067 55.1307 0.96 51.0387 0.96 45.748C0.96 41.9453 2.24133 38.7213 4.804 36.076C7.36667 33.348 10.1773 31.488 13.236 30.496C14.8067 30 16.6253 29.5453 18.692 29.132C20.8413 28.636 22.288 28.3053 23.032 28.14C27.1653 27.3133 30.2653 26.5693 32.332 25.908C34.3987 25.164 35.6387 24.172 36.052 22.932C36.052 16.98 34.8947 12.02 32.58 8.052C30.348 4.084 26.5867 2.1 21.296 2.1C17.9893 2.1 15.5093 3.29866 13.856 5.696C12.2853 8.01067 11.5 11.152 11.5 15.12C11.5 16.1947 11.7067 16.98 12.12 17.476C12.5333 17.8893 13.484 18.096 14.972 18.096C15.8813 18.096 16.6667 17.8893 17.328 17.476C17.9893 17.0627 18.32 16.5667 18.32 15.988H19.436V19.336H3.192C3.192 16.36 4.06 13.4253 5.796 10.532C7.532 7.556 9.92933 5.15866 12.988 3.34C16.0467 1.43866 19.436 0.487996 23.156 0.487996C28.116 0.487996 32.084 1.64533 35.06 3.96C38.1187 6.192 40.268 8.92 41.508 12.144C42.8307 15.2853 43.492 18.4267 43.492 21.568V48.476C43.492 54.676 44.8147 57.776 47.46 57.776C48.2867 57.776 49.0307 57.2387 49.692 56.164C50.436 55.0067 50.808 53.8493 50.808 52.692H52.048C52.048 55.7507 51.0973 58.1067 49.196 59.76C47.3773 61.4133 45.2693 62.24 42.872 62.24C40.0613 62.24 38.2013 61 37.292 58.52C36.4653 56.04 36.052 52.568 36.052 48.104V42.4C36.052 43.5573 35.4733 45.748 34.316 48.972C33.2413 52.196 31.2987 55.2133 28.488 58.024C25.6773 60.8347 21.9573 62.24 17.328 62.24ZM20.18 58.768C22.9907 58.768 25.5947 57.652 27.992 55.42C30.3893 53.188 32.2907 50.5427 33.696 47.484C35.1013 44.4253 35.804 41.8627 35.804 39.796V25.66C35.804 25.908 35.3907 26.156 34.564 26.404C33.7373 26.652 32.704 26.9 31.464 27.148C26.0907 28.5533 22.164 29.7107 19.684 30.62C15.7987 32.0253 12.9467 34.0093 11.128 36.572C9.30933 39.052 8.4 41.8627 8.4 45.004C8.4 48.6413 9.392 51.8653 11.376 54.676C13.4427 57.404 16.3773 58.768 20.18 58.768ZM70.6083 62.24C69.0376 62.24 67.5909 61.7027 66.2683 60.628C65.0283 59.5533 64.4083 58.2307 64.4083 56.66C64.4083 55.172 65.0283 53.8907 66.2683 52.816C67.5909 51.6587 69.0376 51.08 70.6083 51.08C72.1789 51.08 73.5843 51.6587 74.8243 52.816C76.1469 53.8907 76.8083 55.172 76.8083 56.66C76.8083 58.2307 76.1469 59.5533 74.8243 60.628C73.5843 61.7027 72.1789 62.24 70.6083 62.24Z" fill="#020000"/>
</svg>
