<svg width="48" height="48" viewBox="0 0 48 48" fill="none" xmlns="http://www.w3.org/2000/svg">
<g clip-path="url(#clip0_3_97)">
<path d="M46.3448 7.72414L46.4552 7.83449C47.669 9.6 48.2207 11.6966 47.8897 13.6828C47.669 15.669 46.5655 17.5448 44.8 18.869L12.2483 43.3655L3.75172 43.4759C3.2 43.4759 2.64828 43.3655 2.09655 43.0345C1.54483 42.8138 1.10345 42.4828 0.772414 41.931C0.441379 41.4897 0.110345 40.9379 0 40.3862C0 39.8345 0 39.2828 0.22069 38.6207L2.64828 30.5655L35.2 6.06897C36.9655 4.74483 39.0621 4.30345 41.0483 4.63449C43.1448 4.85518 45.0207 5.95862 46.3448 7.72414ZM35.7517 10.5931L40.7172 17.1035L42.4828 15.7793C43.3655 15.1172 43.9172 14.1241 44.0276 13.131C44.1379 12.1379 43.9172 11.0345 43.2552 10.1517L43.1448 10.0414C42.4828 9.15862 41.6 8.6069 40.4966 8.49656C39.5034 8.27587 38.5103 8.6069 37.6276 9.15862L35.7517 10.5931ZM37.6276 19.4207L32.6621 12.9103L8.49655 31.1172L13.3517 37.6276L37.6276 19.4207ZM9.93103 39.5035L5.73793 33.8759L3.97241 39.6138L9.93103 39.5035Z" fill="black"/>
</g>
<defs>
<clipPath id="clip0_3_97">
<rect width="48" height="48" fill="white"/>
</clipPath>
</defs>
</svg>
