<svg width="49" height="48" viewBox="0 0 49 48" fill="none" xmlns="http://www.w3.org/2000/svg">
<g clip-path="url(#clip0_3_102)">
<path d="M24.5 3.99999C19.7373 3.98203 15.1245 5.66429 11.4916 8.74412C7.85864 11.8239 5.44402 16.0991 4.68215 20.8006C3.92028 25.502 4.86118 30.3209 7.33557 34.3905C9.80996 38.46 13.6554 41.5129 18.18 43C19.18 43.16 19.5 42.54 19.5 42V38.62C13.96 39.82 12.78 36 12.78 36C12.4065 34.7578 11.5968 33.6924 10.5 33C8.68004 31.76 10.64 31.8 10.64 31.8C11.2678 31.8812 11.8692 32.1033 12.399 32.4496C12.9289 32.7959 13.3737 33.2576 13.7 33.8C14.2556 34.7878 15.1787 35.5164 16.2686 35.8272C17.3584 36.1381 18.527 36.0061 19.52 35.46C19.6112 34.4461 20.0574 33.497 20.78 32.78C16.5 32.34 11.74 30.62 11.74 23C11.6822 21.0029 12.3988 19.0608 13.74 17.58C13.1311 15.8589 13.2027 13.9701 13.94 12.3C13.94 12.3 15.62 11.76 19.44 14.3C22.7152 13.4195 26.1648 13.4195 29.44 14.3C33.26 11.72 34.94 12.3 34.94 12.3C35.6774 13.9701 35.749 15.8589 35.14 17.58C36.4813 19.0608 37.1979 21.0029 37.14 23C37.14 30.64 32.46 32.32 28 32.82C28.4804 33.3028 28.852 33.8827 29.09 34.5208C29.328 35.1589 29.4269 35.8405 29.38 36.52V42C29.38 42.54 29.7 43.18 30.72 43C35.2364 41.5155 39.0763 38.4708 41.5512 34.4118C44.0262 30.3527 44.9742 25.5448 44.2255 20.85C43.4767 16.1553 41.0801 11.8808 37.4654 8.79297C33.8506 5.70514 29.2541 4.00592 24.5 3.99999Z" fill="black"/>
</g>
<defs>
<clipPath id="clip0_3_102">
<rect width="48" height="48" fill="white" transform="translate(0.5)"/>
</clipPath>
</defs>
</svg>
