<svg width="48" height="48" viewBox="0 0 48 48" fill="none" xmlns="http://www.w3.org/2000/svg">
<g clip-path="url(#clip0_3_107)">
<path d="M24 0C10.7438 0 0 10.7438 0 24C0 37.2562 10.7438 48 24 48C37.2562 48 48 37.2562 48 24C48 10.7438 37.2562 0 24 0ZM17.2875 34.0406H12.6094V19.0687H17.2875V34.0406ZM14.8219 17.1937H14.7844C13.0875 17.1937 11.9906 16.05 11.9906 14.5969C11.9906 13.1156 13.125 12 14.85 12C16.575 12 17.6344 13.1156 17.6719 14.5969C17.6812 16.0406 16.5844 17.1937 14.8219 17.1937ZM36 34.0406H30.6937V26.2969C30.6937 24.2719 29.8688 22.8844 28.0406 22.8844C26.6438 22.8844 25.8656 23.8219 25.5094 24.7219C25.3781 25.0406 25.3969 25.4906 25.3969 25.95V34.0406H20.1375C20.1375 34.0406 20.2031 20.3156 20.1375 19.0687H25.3969V21.4219C25.7062 20.3906 27.3844 18.9281 30.0656 18.9281C33.3938 18.9281 36 21.0844 36 25.7156V34.0406Z" fill="black"/>
</g>
<defs>
<clipPath id="clip0_3_107">
<rect width="48" height="48" fill="white"/>
</clipPath>
</defs>
</svg>
