<svg width="49" height="48" viewBox="0 0 49 48" fill="none" xmlns="http://www.w3.org/2000/svg">
<path d="M14.5 20V24C14.5 25.3334 15.26 28 18.3 28C21.34 28 22.1 25.3334 22.1 24V20M27.8 20L30.65 24M30.65 24L33.5 28M30.65 24L33.5 20M30.65 24L27.8 28" stroke="black" stroke-width="5" stroke-linecap="round" stroke-linejoin="round"/>
<path d="M24.5 43C34.9934 43 43.5 34.4934 43.5 24C43.5 13.5066 34.9934 5 24.5 5C14.0066 5 5.5 13.5066 5.5 24C5.5 34.4934 14.0066 43 24.5 43Z" stroke="black" stroke-width="5" stroke-linecap="round" stroke-linejoin="round"/>
</svg>
